solid belt
facet normal -0.0 -0.0 1.0
  outer loop
    vertex 1.75 9.0 8.5
    vertex 0.0 14.067060700985078 8.5
    vertex 0.0 9.0 8.5
  endloop
endfacet
facet normal -0.0 -0.0 1.0
  outer loop
    vertex 0.0 14.067060700985078 8.5
    vertex 1.75 9.0 8.5
    vertex 1.7500000000000002 14.067060700985078 8.5
  endloop
endfacet
facet normal 1.0 -6.956613135697371e-17 1.09814620211351e-33
  outer loop
    vertex 1.7500000000000002 14.067060700985078 1.9999999999999996
    vertex 1.75 9.0 8.5
    vertex 1.75 9.0 1.9999999999999998
  endloop
endfacet
facet normal 1.0 -6.956613135697371e-17 1.09814620211351e-33
  outer loop
    vertex 1.75 9.0 8.5
    vertex 1.7500000000000002 14.067060700985078 1.9999999999999996
    vertex 1.7500000000000002 14.067060700985078 8.5
  endloop
endfacet
facet normal -0.0 -0.0 1.0
  outer loop
    vertex 5.895904000000001 9.0 8.5
    vertex 4.145904000000001 14.067060700985078 8.5
    vertex 4.145904 9.0 8.5
  endloop
endfacet
facet normal -0.0 -0.0 1.0
  outer loop
    vertex 4.145904000000001 14.067060700985078 8.5
    vertex 5.895904000000001 9.0 8.5
    vertex 5.895904000000001 14.067060700985078 8.5
  endloop
endfacet
facet normal 1.0 -0.0 -0.0
  outer loop
    vertex 5.895904000000001 14.067060700985078 -3.524958103184872e-16
    vertex 5.895904000000001 9.0 8.5
    vertex 5.895904000000001 9.0 0.0
  endloop
endfacet
facet normal 1.0 -0.0 -0.0
  outer loop
    vertex 5.895904000000001 9.0 8.5
    vertex 5.895904000000001 14.067060700985078 -3.524958103184872e-16
    vertex 5.895904000000001 14.067060700985078 8.5
  endloop
endfacet
facet normal -1.439214523740069e-33 6.956613135697371e-17 1.0
  outer loop
    vertex 4.145904 9.0 1.9999999999999998
    vertex 1.7500000000000002 14.067060700985078 1.9999999999999996
    vertex 1.75 9.0 1.9999999999999998
  endloop
endfacet
facet normal -1.439214523740069e-33 6.956613135697371e-17 1.0
  outer loop
    vertex 1.7500000000000002 14.067060700985078 1.9999999999999996
    vertex 4.145904 9.0 1.9999999999999998
    vertex 4.145904000000001 14.067060700985078 1.9999999999999996
  endloop
endfacet
facet normal -0.0 -0.0 1.0
  outer loop
    vertex 1.7500000000000002 14.067060700985078 1.9999999999999996
    vertex 5.145904000000001 16.03353035049254 1.9999999999999996
    vertex 0.7500000000000006 16.03353035049254 1.9999999999999996
  endloop
endfacet
facet normal -0.0 -0.0 1.0
  outer loop
    vertex 5.145904000000001 16.03353035049254 1.9999999999999996
    vertex 1.7500000000000002 14.067060700985078 1.9999999999999996
    vertex 4.145904000000001 14.067060700985078 1.9999999999999996
  endloop
endfacet
facet normal -0.0 -0.0 1.0
  outer loop
    vertex 0.7500000000000003 1.0335303504925413 8.5
    vertex 0.0 3.0000000000000013 8.5
    vertex 0.0 1.0335303504925422 8.5
  endloop
endfacet
facet normal -0.0 -0.0 1.0
  outer loop
    vertex 0.0 3.0000000000000013 8.5
    vertex 0.7500000000000003 1.0335303504925413 8.5
    vertex 1.750000000000001 3.0000000000000044 8.5
  endloop
endfacet
facet normal 0.0 0.0 -1.0
  outer loop
    vertex 5.895903999999999 3.0000000000000058 0.0
    vertex 0.0 1.0335303504925422 0.0
    vertex 0.0 3.0000000000000013 0.0
  endloop
endfacet
facet normal 0.0 0.0 -1.0
  outer loop
    vertex 0.0 1.0335303504925422 0.0
    vertex 5.895903999999999 3.0000000000000058 0.0
    vertex 5.895903999999999 1.0335303504925517 0.0
  endloop
endfacet
facet normal -0.0 -0.0 1.0
  outer loop
    vertex 5.145904000000003 1.0335303504925384 1.9999999999999991
    vertex 1.750000000000001 3.0000000000000044 1.9999999999999991
    vertex 0.7500000000000003 1.0335303504925413 1.9999999999999991
  endloop
endfacet
facet normal -0.0 -0.0 1.0
  outer loop
    vertex 1.750000000000001 3.0000000000000044 1.9999999999999991
    vertex 5.145904000000003 1.0335303504925384 1.9999999999999991
    vertex 4.1459040000000025 3.0000000000000013 1.9999999999999991
  endloop
endfacet
facet normal -0.0 -0.0 1.0
  outer loop
    vertex 1.750000000000001 3.0000000000000044 8.5
    vertex 0.0 9.0 8.5
    vertex 0.0 3.0000000000000013 8.5
  endloop
endfacet
facet normal -0.0 -0.0 1.0
  outer loop
    vertex 0.0 9.0 8.5
    vertex 1.750000000000001 3.0000000000000044 8.5
    vertex 1.75 9.0 8.5
  endloop
endfacet
facet normal -1.0 -3.5249581031848723e-16 1.0293172473900713e-33
  outer loop
    vertex 4.145904 9.0 8.5
    vertex 4.1459040000000025 3.0000000000000013 1.9999999999999991
    vertex 4.1459040000000025 3.0000000000000013 8.5
  endloop
endfacet
facet normal -1.0 -3.5249581031848723e-16 1.0293172473900713e-33
  outer loop
    vertex 4.1459040000000025 3.0000000000000013 1.9999999999999991
    vertex 4.145904 9.0 8.5
    vertex 4.145904 9.0 1.9999999999999998
  endloop
endfacet
facet normal -8.008862135126481e-32 -1.1749860343949576e-16 1.0
  outer loop
    vertex 1.750000000000001 3.0000000000000044 1.9999999999999991
    vertex 4.145904 9.0 1.9999999999999998
    vertex 1.75 9.0 1.9999999999999998
  endloop
endfacet
facet normal -8.008862135126481e-32 -1.1749860343949576e-16 1.0
  outer loop
    vertex 4.145904 9.0 1.9999999999999998
    vertex 1.750000000000001 3.0000000000000044 1.9999999999999991
    vertex 4.1459040000000025 3.0000000000000013 1.9999999999999991
  endloop
endfacet
facet normal -1.0 0.0 0.0
  outer loop
    vertex 0.0 9.0 8.5
    vertex 0.0 3.0000000000000013 0.0
    vertex 0.0 3.0000000000000013 8.5
  endloop
endfacet
facet normal -1.0 0.0 0.0
  outer loop
    vertex 0.0 3.0000000000000013 0.0
    vertex 0.0 9.0 8.5
    vertex 0.0 9.0 0.0
  endloop
endfacet
facet normal 8.08297443289113e-16 -1.0 -1.2102860440119728e-16
  outer loop
    vertex 5.895903999999999 1.0335303504925517 0.0
    vertex 5.145904000000003 1.0335303504925384 1.9999999999999991
    vertex 0.0 1.0335303504925422 0.0
  endloop
endfacet
facet normal 8.08297443289113e-16 -1.0 -1.2102860440119728e-16
  outer loop
    vertex 5.145904000000003 1.0335303504925384 1.9999999999999991
    vertex 5.895903999999999 1.0335303504925517 0.0
    vertex 5.895903999999999 1.0335303504925517 8.5
  endloop
endfacet
facet normal 8.08297443289113e-16 -1.0 -1.2102860440119728e-16
  outer loop
    vertex 5.145904000000003 1.0335303504925384 1.9999999999999991
    vertex 5.895903999999999 1.0335303504925517 8.5
    vertex 5.145904000000003 1.0335303504925384 8.5
  endloop
endfacet
facet normal 8.08297443289113e-16 -1.0 -1.2102860440119728e-16
  outer loop
    vertex 0.0 1.0335303504925422 0.0
    vertex 0.7500000000000003 1.0335303504925413 1.9999999999999991
    vertex 0.0 1.0335303504925422 8.5
  endloop
endfacet
facet normal 8.08297443289113e-16 -1.0 -1.2102860440119728e-16
  outer loop
    vertex 0.7500000000000003 1.0335303504925413 1.9999999999999991
    vertex 0.0 1.0335303504925422 0.0
    vertex 5.145904000000003 1.0335303504925384 1.9999999999999991
  endloop
endfacet
facet normal 8.08297443289113e-16 -1.0 -1.2102860440119728e-16
  outer loop
    vertex 0.0 1.0335303504925422 8.5
    vertex 0.7500000000000003 1.0335303504925413 1.9999999999999991
    vertex 0.7500000000000003 1.0335303504925413 8.5
  endloop
endfacet
facet normal -0.0 -0.0 1.0
  outer loop
    vertex 4.1459040000000025 3.0000000000000013 8.5
    vertex 5.895904000000001 9.0 8.5
    vertex 4.145904 9.0 8.5
  endloop
endfacet
facet normal -0.0 -0.0 1.0
  outer loop
    vertex 5.895904000000001 9.0 8.5
    vertex 4.1459040000000025 3.0000000000000013 8.5
    vertex 5.895903999999999 3.0000000000000058 8.5
  endloop
endfacet
facet normal 8.420417158691515e-33 -6.956613135697373e-17 -1.0
  outer loop
    vertex 5.895904000000001 14.067060700985078 -3.524958103184872e-16
    vertex 0.0 9.0 0.0
    vertex 0.0 14.067060700985078 -3.524958103184872e-16
  endloop
endfacet
facet normal 8.420417158691515e-33 -6.956613135697373e-17 -1.0
  outer loop
    vertex 5.895904000000001 9.0 0.0
    vertex 0.0 9.0 0.0
    vertex 5.895904000000001 14.067060700985078 -3.524958103184872e-16
  endloop
endfacet
facet normal 0.0 0.0 -1.0
  outer loop
    vertex 5.895904000000001 9.0 0.0
    vertex 0.0 3.0000000000000013 0.0
    vertex 0.0 9.0 0.0
  endloop
endfacet
facet normal 0.0 0.0 -1.0
  outer loop
    vertex 5.895904000000001 9.0 0.0
    vertex 5.895903999999999 3.0000000000000058 0.0
    vertex 0.0 3.0000000000000013 0.0
  endloop
endfacet
facet normal -0.0 -0.0 1.0
  outer loop
    vertex 5.145904000000003 1.0335303504925384 8.5
    vertex 5.895903999999999 3.0000000000000058 8.5
    vertex 4.1459040000000025 3.0000000000000013 8.5
  endloop
endfacet
facet normal -0.0 -0.0 1.0
  outer loop
    vertex 5.895903999999999 3.0000000000000058 8.5
    vertex 5.145904000000003 1.0335303504925384 8.5
    vertex 5.895903999999999 1.0335303504925517 8.5
  endloop
endfacet
facet normal -0.0 -0.0 1.0
  outer loop
    vertex 5.895904000000001 14.067060700985078 8.5
    vertex 5.145904000000001 16.03353035049254 8.5
    vertex 4.145904000000001 14.067060700985078 8.5
  endloop
endfacet
facet normal -0.0 -0.0 1.0
  outer loop
    vertex 5.145904000000001 16.03353035049254 8.5
    vertex 5.895904000000001 14.067060700985078 8.5
    vertex 5.895904000000001 16.03353035049254 8.5
  endloop
endfacet
facet normal -1.0 0.0 0.0
  outer loop
    vertex 0.0 14.067060700985078 8.5
    vertex 0.0 9.0 0.0
    vertex 0.0 9.0 8.5
  endloop
endfacet
facet normal -1.0 0.0 0.0
  outer loop
    vertex 0.0 9.0 0.0
    vertex 0.0 14.067060700985078 8.5
    vertex 0.0 14.067060700985078 -3.524958103184872e-16
  endloop
endfacet
facet normal 1.0 -0.0 -0.0
  outer loop
    vertex 5.895904000000001 16.03353035049254 -3.524958103184872e-16
    vertex 5.895904000000001 14.067060700985078 8.5
    vertex 5.895904000000001 14.067060700985078 -3.524958103184872e-16
  endloop
endfacet
facet normal 1.0 -0.0 -0.0
  outer loop
    vertex 5.895904000000001 14.067060700985078 8.5
    vertex 5.895904000000001 16.03353035049254 -3.524958103184872e-16
    vertex 5.895904000000001 16.03353035049254 8.5
  endloop
endfacet
facet normal 1.0 -2.3499720687899167e-16 -0.0
  outer loop
    vertex 5.895904000000001 9.0 0.0
    vertex 5.895903999999999 3.0000000000000058 8.5
    vertex 5.895903999999999 3.0000000000000058 0.0
  endloop
endfacet
facet normal 1.0 -2.3499720687899167e-16 -0.0
  outer loop
    vertex 5.895903999999999 3.0000000000000058 8.5
    vertex 5.895904000000001 9.0 0.0
    vertex 5.895904000000001 9.0 8.5
  endloop
endfacet
facet normal 1.0 -0.0 -0.0
  outer loop
    vertex 5.895903999999999 3.0000000000000058 0.0
    vertex 5.895903999999999 1.0335303504925517 8.5
    vertex 5.895903999999999 1.0335303504925517 0.0
  endloop
endfacet
facet normal 1.0 -0.0 -0.0
  outer loop
    vertex 5.895903999999999 1.0335303504925517 8.5
    vertex 5.895903999999999 3.0000000000000058 0.0
    vertex 5.895903999999999 3.0000000000000058 8.5
  endloop
endfacet
facet normal 1.0 1.7624790515924374e-16 5.36715421853393e-33
  outer loop
    vertex 1.75 9.0 1.9999999999999998
    vertex 1.750000000000001 3.0000000000000044 8.5
    vertex 1.750000000000001 3.0000000000000044 1.9999999999999991
  endloop
endfacet
facet normal 1.0 1.7624790515924374e-16 5.36715421853393e-33
  outer loop
    vertex 1.750000000000001 3.0000000000000044 8.5
    vertex 1.75 9.0 1.9999999999999998
    vertex 1.75 9.0 8.5
  endloop
endfacet
facet normal 0.8913667834293584 -0.4532827565645966 -0.0
  outer loop
    vertex 1.750000000000001 3.0000000000000044 1.9999999999999991
    vertex 0.7500000000000003 1.0335303504925413 8.5
    vertex 0.7500000000000003 1.0335303504925413 1.9999999999999991
  endloop
endfacet
facet normal 0.8913667834293584 -0.4532827565645966 -0.0
  outer loop
    vertex 0.7500000000000003 1.0335303504925413 8.5
    vertex 1.750000000000001 3.0000000000000044 1.9999999999999991
    vertex 1.750000000000001 3.0000000000000044 8.5
  endloop
endfacet
facet normal -1.0 0.0 0.0
  outer loop
    vertex 0.0 3.0000000000000013 8.5
    vertex 0.0 1.0335303504925422 0.0
    vertex 0.0 1.0335303504925422 8.5
  endloop
endfacet
facet normal -1.0 0.0 0.0
  outer loop
    vertex 0.0 1.0335303504925422 0.0
    vertex 0.0 3.0000000000000013 8.5
    vertex 0.0 3.0000000000000013 0.0
  endloop
endfacet
facet normal -0.8913667834293584 -0.4532827565645967 0.0
  outer loop
    vertex 4.1459040000000025 3.0000000000000013 8.5
    vertex 5.145904000000003 1.0335303504925384 1.9999999999999991
    vertex 5.145904000000003 1.0335303504925384 8.5
  endloop
endfacet
facet normal -0.8913667834293584 -0.4532827565645967 0.0
  outer loop
    vertex 5.145904000000003 1.0335303504925384 1.9999999999999991
    vertex 4.1459040000000025 3.0000000000000013 8.5
    vertex 4.1459040000000025 3.0000000000000013 1.9999999999999991
  endloop
endfacet
facet normal -1.0 1.3913226271394743e-16 0.0
  outer loop
    vertex 4.145904000000001 14.067060700985078 8.5
    vertex 4.145904 9.0 1.9999999999999998
    vertex 4.145904 9.0 8.5
  endloop
endfacet
facet normal -1.0 1.3913226271394743e-16 0.0
  outer loop
    vertex 4.145904 9.0 1.9999999999999998
    vertex 4.145904000000001 14.067060700985078 8.5
    vertex 4.145904000000001 14.067060700985078 1.9999999999999996
  endloop
endfacet
facet normal -0.8913667834293585 0.4532827565645965 0.0
  outer loop
    vertex 5.145904000000001 16.03353035049254 8.5
    vertex 4.145904000000001 14.067060700985078 1.9999999999999996
    vertex 4.145904000000001 14.067060700985078 8.5
  endloop
endfacet
facet normal -0.8913667834293585 0.4532827565645965 0.0
  outer loop
    vertex 4.145904000000001 14.067060700985078 1.9999999999999996
    vertex 5.145904000000001 16.03353035049254 8.5
    vertex 5.145904000000001 16.03353035049254 1.9999999999999996
  endloop
endfacet
facet normal 0.8913667834293584 0.4532827565645965 5.242852593911124e-33
  outer loop
    vertex 0.7500000000000006 16.03353035049254 1.9999999999999996
    vertex 1.7500000000000002 14.067060700985078 8.5
    vertex 1.7500000000000002 14.067060700985078 1.9999999999999996
  endloop
endfacet
facet normal 0.8913667834293584 0.4532827565645965 5.242852593911124e-33
  outer loop
    vertex 1.7500000000000002 14.067060700985078 8.5
    vertex 0.7500000000000006 16.03353035049254 1.9999999999999996
    vertex 0.7500000000000006 16.03353035049254 8.5
  endloop
endfacet
facet normal -0.0 1.0 -0.0
  outer loop
    vertex 0.0 16.03353035049254 -3.524958103184872e-16
    vertex 0.7500000000000006 16.03353035049254 1.9999999999999996
    vertex 5.895904000000001 16.03353035049254 -3.524958103184872e-16
  endloop
endfacet
facet normal -0.0 1.0 -0.0
  outer loop
    vertex 0.7500000000000006 16.03353035049254 1.9999999999999996
    vertex 0.0 16.03353035049254 -3.524958103184872e-16
    vertex 0.0 16.03353035049254 8.5
  endloop
endfacet
facet normal -0.0 1.0 -0.0
  outer loop
    vertex 0.7500000000000006 16.03353035049254 1.9999999999999996
    vertex 0.0 16.03353035049254 8.5
    vertex 0.7500000000000006 16.03353035049254 8.5
  endloop
endfacet
facet normal -0.0 1.0 -0.0
  outer loop
    vertex 5.895904000000001 16.03353035049254 -3.524958103184872e-16
    vertex 5.145904000000001 16.03353035049254 1.9999999999999996
    vertex 5.895904000000001 16.03353035049254 8.5
  endloop
endfacet
facet normal -0.0 1.0 -0.0
  outer loop
    vertex 5.145904000000001 16.03353035049254 1.9999999999999996
    vertex 5.895904000000001 16.03353035049254 -3.524958103184872e-16
    vertex 0.7500000000000006 16.03353035049254 1.9999999999999996
  endloop
endfacet
facet normal -0.0 1.0 -0.0
  outer loop
    vertex 5.895904000000001 16.03353035049254 8.5
    vertex 5.145904000000001 16.03353035049254 1.9999999999999996
    vertex 5.145904000000001 16.03353035049254 8.5
  endloop
endfacet
facet normal 0.0 0.0 -1.0
  outer loop
    vertex 5.895904000000001 16.03353035049254 -3.524958103184872e-16
    vertex 0.0 14.067060700985078 -3.524958103184872e-16
    vertex 0.0 16.03353035049254 -3.524958103184872e-16
  endloop
endfacet
facet normal 0.0 0.0 -1.0
  outer loop
    vertex 0.0 14.067060700985078 -3.524958103184872e-16
    vertex 5.895904000000001 16.03353035049254 -3.524958103184872e-16
    vertex 5.895904000000001 14.067060700985078 -3.524958103184872e-16
  endloop
endfacet
facet normal -0.0 -0.0 1.0
  outer loop
    vertex 1.7500000000000002 14.067060700985078 8.5
    vertex 0.0 16.03353035049254 8.5
    vertex 0.0 14.067060700985078 8.5
  endloop
endfacet
facet normal -0.0 -0.0 1.0
  outer loop
    vertex 0.0 16.03353035049254 8.5
    vertex 1.7500000000000002 14.067060700985078 8.5
    vertex 0.7500000000000006 16.03353035049254 8.5
  endloop
endfacet
facet normal -1.0 0.0 0.0
  outer loop
    vertex 0.0 16.03353035049254 8.5
    vertex 0.0 14.067060700985078 -3.524958103184872e-16
    vertex 0.0 14.067060700985078 8.5
  endloop
endfacet
facet normal -1.0 0.0 0.0
  outer loop
    vertex 0.0 14.067060700985078 -3.524958103184872e-16
    vertex 0.0 16.03353035049254 8.5
    vertex 0.0 16.03353035049254 -3.524958103184872e-16
  endloop
endfacet
endsolid belt
